<svg xmlns="http://www.w3.org/2000/svg" viewBox="0 0 1200 720">
<defs><linearGradient id="wall" x1="0" y1="0" x2="1" y2="1"><stop stop-color="#b68cff"/><stop offset="1" stop-color="#f3efff"/></linearGradient><linearGradient id="floor" x1="0" y1="0" x2="0" y2="1"><stop stop-color="#211b31"/><stop offset="1" stop-color="#1c1731" stop-opacity=".16"/></linearGradient><filter id="glow"><feGaussianBlur stdDeviation="5" result="b"/><feMerge><feMergeNode in="b"/><feMergeNode in="SourceGraphic"/></feMerge></filter></defs>
<rect width="1200" height="720" fill="url(#wall)"/><rect width="1200" height="105" fill="#1c1731"/><rect x="160" y="38" width="130" height="18" rx="9" fill="#ffffff" opacity=".95" filter="url(#glow)"/><rect x="380" y="38" width="130" height="18" rx="9" fill="#ffffff" opacity=".95" filter="url(#glow)"/><rect x="600" y="38" width="130" height="18" rx="9" fill="#ffffff" opacity=".95" filter="url(#glow)"/><rect x="820" y="38" width="130" height="18" rx="9" fill="#ffffff" opacity=".95" filter="url(#glow)"/>
<rect y="105" width="1200" height="425" fill="url(#wall)"/>
<rect x="40" y="122" width="790" height="95" rx="25" fill="#1c1731" opacity=".92"/><text x="435" y="180" text-anchor="middle" fill="#ffffff" font-family="Arial" font-size="42" font-weight="900" letter-spacing="3">TOY STORE TYCOON</text>
<rect x="55" y="210" width="1090" height="12" rx="6" fill="#1c1731" opacity=".72"/><rect x="75" y="150" width="64" height="58" rx="8" fill="#ff5f8e" opacity=".22"/><rect x="170" y="145" width="64" height="58" rx="8" fill="#39d3c7" opacity=".22"/><rect x="265" y="140" width="64" height="58" rx="8" fill="#ffc94f" opacity=".22"/><rect x="360" y="150" width="64" height="58" rx="8" fill="#61d48b" opacity=".22"/><rect x="455" y="145" width="64" height="58" rx="8" fill="#ff9e64" opacity=".22"/><rect x="550" y="140" width="64" height="58" rx="8" fill="#64a6ff" opacity=".22"/><rect x="645" y="150" width="64" height="58" rx="8" fill="#ff5f8e" opacity=".22"/><rect x="740" y="145" width="64" height="58" rx="8" fill="#39d3c7" opacity=".22"/><rect x="835" y="140" width="64" height="58" rx="8" fill="#ffc94f" opacity=".22"/><rect x="930" y="150" width="64" height="58" rx="8" fill="#61d48b" opacity=".22"/><rect x="1025" y="145" width="64" height="58" rx="8" fill="#ff9e64" opacity=".22"/><rect x="55" y="315" width="1090" height="12" rx="6" fill="#1c1731" opacity=".72"/><rect x="82" y="255" width="64" height="58" rx="8" fill="#ff5f8e" opacity=".22"/><rect x="177" y="250" width="64" height="58" rx="8" fill="#39d3c7" opacity=".22"/><rect x="272" y="245" width="64" height="58" rx="8" fill="#ffc94f" opacity=".22"/><rect x="367" y="255" width="64" height="58" rx="8" fill="#61d48b" opacity=".22"/><rect x="462" y="250" width="64" height="58" rx="8" fill="#ff9e64" opacity=".22"/><rect x="557" y="245" width="64" height="58" rx="8" fill="#64a6ff" opacity=".22"/><rect x="652" y="255" width="64" height="58" rx="8" fill="#ff5f8e" opacity=".22"/><rect x="747" y="250" width="64" height="58" rx="8" fill="#39d3c7" opacity=".22"/><rect x="842" y="245" width="64" height="58" rx="8" fill="#ffc94f" opacity=".22"/><rect x="937" y="255" width="64" height="58" rx="8" fill="#61d48b" opacity=".22"/><rect x="1032" y="250" width="64" height="58" rx="8" fill="#ff9e64" opacity=".22"/><rect x="55" y="420" width="1090" height="12" rx="6" fill="#1c1731" opacity=".72"/><rect x="75" y="360" width="64" height="58" rx="8" fill="#ff5f8e" opacity=".22"/><rect x="170" y="355" width="64" height="58" rx="8" fill="#39d3c7" opacity=".22"/><rect x="265" y="350" width="64" height="58" rx="8" fill="#ffc94f" opacity=".22"/><rect x="360" y="360" width="64" height="58" rx="8" fill="#61d48b" opacity=".22"/><rect x="455" y="355" width="64" height="58" rx="8" fill="#ff9e64" opacity=".22"/><rect x="550" y="350" width="64" height="58" rx="8" fill="#64a6ff" opacity=".22"/><rect x="645" y="360" width="64" height="58" rx="8" fill="#ff5f8e" opacity=".22"/><rect x="740" y="355" width="64" height="58" rx="8" fill="#39d3c7" opacity=".22"/><rect x="835" y="350" width="64" height="58" rx="8" fill="#ffc94f" opacity=".22"/><rect x="930" y="360" width="64" height="58" rx="8" fill="#61d48b" opacity=".22"/><rect x="1025" y="355" width="64" height="58" rx="8" fill="#ff9e64" opacity=".22"/><rect x="55" y="525" width="1090" height="12" rx="6" fill="#1c1731" opacity=".72"/><rect x="82" y="465" width="64" height="58" rx="8" fill="#ff5f8e" opacity=".22"/><rect x="177" y="460" width="64" height="58" rx="8" fill="#39d3c7" opacity=".22"/><rect x="272" y="455" width="64" height="58" rx="8" fill="#ffc94f" opacity=".22"/><rect x="367" y="465" width="64" height="58" rx="8" fill="#61d48b" opacity=".22"/><rect x="462" y="460" width="64" height="58" rx="8" fill="#ff9e64" opacity=".22"/><rect x="557" y="455" width="64" height="58" rx="8" fill="#64a6ff" opacity=".22"/><rect x="652" y="465" width="64" height="58" rx="8" fill="#ff5f8e" opacity=".22"/><rect x="747" y="460" width="64" height="58" rx="8" fill="#39d3c7" opacity=".22"/><rect x="842" y="455" width="64" height="58" rx="8" fill="#ffc94f" opacity=".22"/><rect x="937" y="465" width="64" height="58" rx="8" fill="#61d48b" opacity=".22"/><rect x="1032" y="460" width="64" height="58" rx="8" fill="#ff9e64" opacity=".22"/><rect x="865" y="130" width="245" height="310" rx="24" fill="#1c1731" opacity=".9"/><rect x="885" y="150" width="205" height="80" rx="16" fill="#ff5f8e"/><text x="987" y="186" text-anchor="middle" fill="white" font-size="24" font-weight="900" font-family="Arial">FEATURED</text><text x="987" y="215" text-anchor="middle" fill="white" font-size="16" font-weight="700" font-family="Arial">TOY UNIVERSE</text>
<rect y="500" width="1200" height="220" fill="url(#floor)"/><path d="M0 520 H1200" stroke="#ffffff" opacity=".08"/><path d="M0 562 H1200" stroke="#ffffff" opacity=".08"/><path d="M0 604 H1200" stroke="#ffffff" opacity=".08"/><path d="M0 646 H1200" stroke="#ffffff" opacity=".08"/><path d="M0 688 H1200" stroke="#ffffff" opacity=".08"/><path d="M0 730 H1200" stroke="#ffffff" opacity=".08"/><g><rect x="75" y="510" width="300" height="115" rx="20" fill="#1c1731"/><rect x="96" y="530" width="115" height="70" rx="14" fill="#ff5f8e"/><rect x="230" y="545" width="118" height="18" rx="9" fill="#ffffff" opacity=".65"/><text x="287" y="589" text-anchor="middle" fill="#ffffff" font-size="18" font-weight="900" font-family="Arial">CHECKOUT</text></g>
<rect x="780" y="520" width="350" height="150" rx="26" fill="#1c1731" opacity=".26"/><path d="M800 590 C870 535 940 650 1110 565" fill="none" stroke="#39d3c7" stroke-width="8" opacity=".35"/>
</svg>