<svg xmlns="http://www.w3.org/2000/svg" viewBox="0 0 160 190"><defs><filter id="s"><feDropShadow dx="0" dy="6" stdDeviation="5" flood-opacity=".25"/></filter></defs><g filter="url(#s)"><ellipse cx="80" cy="169" rx="43" ry="10" fill="#000" opacity=".12"/><circle cx="80" cy="58" r="27" fill="#8d5b45"/><path d="M57 48 Q80 23 104 48 L101 61 H59 Z" fill="#6a4026"/><circle cx="70" cy="60" r="3" fill="#241a18"/><circle cx="91" cy="60" r="3" fill="#241a18"/><path d="M73 72 Q80 78 88 72" fill="none" stroke="#7f4a43" stroke-width="3" stroke-linecap="round"/><path d="M108 118 H145 V151 H108 Z" fill="#ffe26d"/><text x="126" y="140" text-anchor="middle" font-size="12" font-weight="900" font-family="Arial">SALE</text><path d="M55 89 Q80 78 105 89 L112 135 Q102 147 95 150 H65 Q56 144 49 135 Z" fill="#6bcf7f"/><path d="M56 92 L38 128" stroke="#8d5b45" stroke-width="13" stroke-linecap="round"/><path d="M104 92 L122 128" stroke="#8d5b45" stroke-width="13" stroke-linecap="round"/><path d="M66 149 L61 176" stroke="#34c6c8" stroke-width="14" stroke-linecap="round"/><path d="M94 149 L100 176" stroke="#34c6c8" stroke-width="14" stroke-linecap="round"/></g></svg>