<svg xmlns="http://www.w3.org/2000/svg" width="1400" height="560" viewBox="0 0 1400 560"><defs>
      <linearGradient id="packbg" x1="0" y1="0" x2="1" y2="1"><stop stop-color="#0B1630"/><stop offset="1" stop-color="#00C9FF"/></linearGradient>
      <linearGradient id="shine" x1="0" y1="0" x2="1" y2="1"><stop stop-color="#fff" stop-opacity=".75"/><stop offset=".4" stop-color="#fff" stop-opacity=".05"/><stop offset="1" stop-color="#fff" stop-opacity=".22"/></linearGradient>
      <linearGradient id="plastic" x1="0" y1="0" x2="0" y2="1"><stop stop-color="#fff" stop-opacity=".92"/><stop offset="1" stop-color="#dbe5f3" stop-opacity=".76"/></linearGradient>
      <filter id="shadow" x="-30%" y="-30%" width="160%" height="170%"><feDropShadow dx="0" dy="18" stdDeviation="18" flood-color="#000" flood-opacity=".38"/></filter>
      <filter id="smallshadow"><feDropShadow dx="0" dy="8" stdDeviation="7" flood-color="#000" flood-opacity=".32"/></filter>
      <filter id="glow"><feGaussianBlur stdDeviation="8" result="b"/><feMerge><feMergeNode in="b"/><feMergeNode in="SourceGraphic"/></feMerge></filter>
      <pattern id="grid" width="28" height="28" patternUnits="userSpaceOnUse"><path d="M28 0H0V28" fill="none" stroke="#fff" stroke-opacity=".08" stroke-width="1"/></pattern>
    </defs><rect width="1400" height="560" fill="url(#packbg)"/><rect width="1400" height="560" fill="url(#grid)" opacity=".22"/><circle cx="1280" cy="90" r="250" fill="#fff" opacity=".08"/><path d="M0 480q440-170 780-30t620-40v150H0z" fill="#000" opacity=".15"/><g transform="translate(760 85) scale(.32)" transform-origin="360 360"><g transform="translate(0 0) scale(1)" transform-origin="360 380" filter="url(#smallshadow)">
        <path d="M280 320l38-94h84l40 94-32 118-50 28-51-28z" fill="#00C9FF" stroke="#0B1630" stroke-width="15"/>
        <path d="M315 240l18-91h56l20 91-49 39z" fill="#FF5A36" stroke="#0B1630" stroke-width="15"/><rect x="341" y="182" width="38" height="16" rx="8" fill="#B6F7FF"/>
        <path d="M309 329l51-31 52 31-22 76h-60z" fill="#FF5A36"/><circle cx="360" cy="346" r="27" fill="#B6F7FF" stroke="#fff" stroke-width="8"/>
        <path d="M286 327l-79 46 32 100 67-35M434 327l79 46-32 100-67-35" fill="#FF5A36" stroke="#0B1630" stroke-width="15"/>
        <path d="M329 441l-39 155 65 10 21-150M392 441l39 155-65 10-21-150" fill="#00C9FF" stroke="#0B1630" stroke-width="15"/>
        <circle cx="251" cy="424" r="29" fill="#141823" stroke="#B6F7FF" stroke-width="9"/><circle cx="469" cy="424" r="29" fill="#141823" stroke="#B6F7FF" stroke-width="9"/>
        
        </g></g><g transform="translate(900 155) scale(.32)" transform-origin="360 360"><g transform="translate(0 0) scale(1)" transform-origin="360 380" filter="url(#smallshadow)"><path d="M287 326L82 190l78 218 132-18zM433 326l205-136-78 218-132-18z" fill="#00C9FF" stroke="#0B1630" stroke-width="14"/>
        <path d="M280 320l38-94h84l40 94-32 118-50 28-51-28z" fill="#00C9FF" stroke="#0B1630" stroke-width="15"/>
        <path d="M315 240l18-91h56l20 91-49 39z" fill="#FF5A36" stroke="#0B1630" stroke-width="15"/><rect x="341" y="182" width="38" height="16" rx="8" fill="#B6F7FF"/>
        <path d="M309 329l51-31 52 31-22 76h-60z" fill="#FF5A36"/><circle cx="360" cy="346" r="27" fill="#B6F7FF" stroke="#fff" stroke-width="8"/>
        <path d="M286 327l-79 46 32 100 67-35M434 327l79 46-32 100-67-35" fill="#FF5A36" stroke="#0B1630" stroke-width="15"/>
        <path d="M329 441l-39 155 65 10 21-150M392 441l39 155-65 10-21-150" fill="#00C9FF" stroke="#0B1630" stroke-width="15"/>
        <circle cx="251" cy="424" r="29" fill="#141823" stroke="#B6F7FF" stroke-width="9"/><circle cx="469" cy="424" r="29" fill="#141823" stroke="#B6F7FF" stroke-width="9"/>
        
        </g></g><g transform="translate(1040 85) scale(.32)" transform-origin="360 360"><g filter="url(#smallshadow)"><rect x="170" y="315" width="340" height="175" rx="28" fill="#00C9FF" stroke="#0B1630" stroke-width="14"/><path d="M510 350h84l52 67v73H502z" fill="#FF5A36" stroke="#0B1630" stroke-width="14"/><rect x="205" y="345" width="235" height="58" rx="12" fill="#b9f5ff" opacity=".86"/><circle cx="235" cy="512" r="48" fill="#10131b"/><circle cx="235" cy="512" r="23" fill="#FF5A36"/><circle cx="555" cy="512" r="48" fill="#10131b"/><circle cx="555" cy="512" r="23" fill="#FF5A36"/><path d="M260 276l68-62h116l78 62-38 62H292z" fill="#FF5A36" stroke="#0B1630" stroke-width="14"/><path d="M340 233v-86h72v86" fill="#00C9FF" stroke="#0B1630" stroke-width="14"/><path d="M326 172l-46-52 74 18M425 172l46-52-74 18" stroke="#B6F7FF" stroke-width="16" stroke-linecap="round"/></g></g><g transform="translate(1180 155) scale(.32)" transform-origin="360 360"><g transform="translate(0 0) scale(1)" transform-origin="360 380" filter="url(#smallshadow)">
        <path d="M280 320l38-94h84l40 94-32 118-50 28-51-28z" fill="#00C9FF" stroke="#0B1630" stroke-width="15"/>
        <path d="M315 240l18-91h56l20 91-49 39z" fill="#FF5A36" stroke="#0B1630" stroke-width="15"/><rect x="341" y="182" width="38" height="16" rx="8" fill="#B6F7FF"/>
        <path d="M309 329l51-31 52 31-22 76h-60z" fill="#FF5A36"/><circle cx="360" cy="346" r="27" fill="#B6F7FF" stroke="#fff" stroke-width="8"/>
        <path d="M286 327l-79 46 32 100 67-35M434 327l79 46-32 100-67-35" fill="#FF5A36" stroke="#0B1630" stroke-width="15"/>
        <path d="M329 441l-39 155 65 10 21-150M392 441l39 155-65 10-21-150" fill="#00C9FF" stroke="#0B1630" stroke-width="15"/>
        <circle cx="251" cy="424" r="29" fill="#141823" stroke="#B6F7FF" stroke-width="9"/><circle cx="469" cy="424" r="29" fill="#141823" stroke="#B6F7FF" stroke-width="9"/>
        <path d="M498 392l86-206" stroke="#B6F7FF" stroke-width="22" stroke-linecap="round"/><path d="M498 392l86-206" stroke="#fff" stroke-width="6" stroke-linecap="round"/>
        </g></g><text x="80" y="205" fill="#fff" font-family="Arial" font-size="76" font-weight="900">GEARMORPH</text><text x="84" y="260" fill="#fff" opacity=".86" font-family="Arial" font-size="24" font-weight="800" letter-spacing="4">CONVERT • COMBINE • BATTLE</text><rect x="80" y="316" width="490" height="72" rx="36" fill="#090b10" fill-opacity=".67"/><text x="325" y="363" text-anchor="middle" fill="#fff" font-family="Arial" font-size="25" font-weight="900">TRANSFORMING MECHS</text><text x="83" y="455" fill="#fff" opacity=".8" font-family="Arial" font-size="20" font-weight="700">A flagship Toy Store Tycoon franchise</text></svg>