<svg xmlns="http://www.w3.org/2000/svg" width="768" height="1024" viewBox="0 0 768 1024"><defs><linearGradient id="cardBg" x1="0" y1="0" x2="1" y2="1"><stop offset="0%" stop-color="#ff4fa2"/><stop offset="52%" stop-color="#b95cff"/><stop offset="100%" stop-color="#6f5bff"/></linearGradient><linearGradient id="windowBg" x1="0" y1="0" x2="0" y2="1"><stop offset="0%" stop-color="#f9fdff" stop-opacity=".94"/><stop offset="100%" stop-color="#c8d9e7" stop-opacity=".90"/></linearGradient><linearGradient id="shine" x1="0" y1="0" x2="1" y2="1"><stop offset="0%" stop-color="#fff" stop-opacity=".36"/><stop offset="60%" stop-color="#fff" stop-opacity="0"/></linearGradient><filter id="softShadow" x="-40%" y="-40%" width="180%" height="220%"><feDropShadow dx="0" dy="10" stdDeviation="8" flood-color="#000" flood-opacity=".25"/></filter><filter id="packageShadow" x="-10%" y="-10%" width="130%" height="130%"><feDropShadow dx="0" dy="16" stdDeviation="14" flood-color="#000" flood-opacity=".18"/></filter></defs><rect width="768" height="1024" fill="none"/><g filter="url(#packageShadow)"><rect x="36" y="34" width="684" height="960" rx="54" fill="url(#cardBg)" stroke="#ffffff" stroke-opacity=".14" stroke-width="3"/></g><circle cx="610" cy="146" r="102" fill="#fff" opacity=".12"/><circle cx="124" cy="824" r="44" fill="#fff" opacity=".10"/><path d="M86,90 C180,160 250,240 340,324" stroke="#fff" stroke-width="12" opacity=".10" stroke-linecap="round"/><path d="M76,62 L154,62" stroke="#fff" stroke-width="14" opacity=".10" stroke-linecap="round"/><path d="M84,82 C164,178 238,266 354,400" stroke="url(#shine)" stroke-width="18" opacity=".28" stroke-linecap="round"/><text x="72" y="108" font-family="Arial, Helvetica, sans-serif" font-size="26" font-weight="800" fill="#fff">LUMA LIFE</text><text x="72" y="144" font-family="Arial, Helvetica, sans-serif" font-size="12" font-weight="700" fill="#fff" opacity=".8" letter-spacing="3">DREAM IT • STYLE IT • LIVE IT</text><g transform="translate(546,74)"><rect width="108" height="48" rx="24" fill="#0a1630" fill-opacity=".68"/><text x="54" y="32" text-anchor="middle" font-family="Arial, Helvetica, sans-serif" font-size="20" font-weight="800" fill="#fff">6+</text></g><g transform="translate(72,166)"><rect width="168" height="30" rx="15" fill="#0a1630" fill-opacity=".58"/><text x="84" y="20" text-anchor="middle" font-size="14" font-weight="800" fill="#fff">FASHION FAVOURITE</text></g><rect x="92" y="206" width="570" height="536" rx="38" fill="url(#windowBg)" stroke="#ffffff" stroke-opacity=".48" stroke-width="6"/><g transform="translate(377 470) scale(1.0)"><ellipse cx="0" cy="146" rx="100" ry="16" fill="#000" opacity=".12"/><g filter="url(#softShadow)"><rect x="-82" y="-76" width="164" height="190" rx="18" fill="#ff77b5" stroke="#6f3568" stroke-width="12"/><line x1="0" y1="-70" x2="0" y2="108" stroke="#6f3568" stroke-width="8"/><circle cx="-12" cy="18" r="5" fill="#fff"/><circle cx="12" cy="18" r="5" fill="#fff"/><path d="M-54,-34 L-18,-34 L-36,12 Z" fill="#ffe575"/><path d="M18,-34 L54,-34 L36,12 Z" fill="#d2f4ff"/><rect x="-54" y="34" width="108" height="16" rx="8" fill="#fff" opacity=".65"/><rect x="-48" y="62" width="96" height="12" rx="6" fill="#fff" opacity=".45"/></g></g><rect x="88" y="750" width="590" height="56" rx="28" fill="#101724" fill-opacity=".83"/><text x="383" y="786" text-anchor="middle" font-size="17" font-weight="800" fill="#fff" letter-spacing="1.4">FASHION WARDROBE</text><g transform="translate(96,708)"><rect x="0" y="0" width="148" height="34" rx="17" fill="#101724" fill-opacity=".80" stroke="#ffffff" stroke-opacity=".20"/><text x="74" y="22" text-anchor="middle" font-size="15" font-weight="700" fill="#fff">ACCESSORIES</text></g><g transform="translate(264,708)"><rect x="0" y="0" width="148" height="34" rx="17" fill="#101724" fill-opacity=".80" stroke="#ffffff" stroke-opacity=".20"/><text x="74" y="22" text-anchor="middle" font-size="15" font-weight="700" fill="#fff">STYLE GUIDE</text></g><g transform="translate(432,708)"><rect x="0" y="0" width="148" height="34" rx="17" fill="#101724" fill-opacity=".80" stroke="#ffffff" stroke-opacity=".20"/><text x="74" y="22" text-anchor="middle" font-size="15" font-weight="700" fill="#fff">MIX &amp; MATCH</text></g><text x="72" y="862" font-family="Arial, Helvetica, sans-serif" font-size="25" font-weight="900" fill="#fff">STARLIGHT WARDROBE</text><text x="72" y="902" font-family="Arial, Helvetica, sans-serif" font-size="14" font-weight="700" fill="#fff" opacity=".9" letter-spacing="2">CORE COLLECTION • #010 • SERIES 2</text></svg>